<svg width="24" height="24" viewBox="0 0 24 24" fill="none" xmlns="http://www.w3.org/2000/svg">
<path d="M14.6713 19.6722H6.53542C5.54682 19.6705 4.59588 19.4117 3.87394 18.9481C3.152 18.4845 2.71266 17.8503 2.6443 17.1733L1.50283 5.45139C1.49107 5.32933 1.51599 5.20691 1.57604 5.09174C1.63609 4.97656 1.72998 4.87109 1.8519 4.78187C1.97381 4.69266 2.12114 4.6216 2.28474 4.57311C2.44834 4.52462 2.62471 4.49974 2.80291 4.5H18.4038C18.582 4.49974 18.7583 4.52462 18.9219 4.57311C19.0855 4.6216 19.2329 4.69266 19.3548 4.78187C19.4767 4.87109 19.5706 4.97656 19.6306 5.09174C19.6907 5.20691 19.7156 5.32933 19.7038 5.45139L18.5624 17.1733C18.494 17.8503 18.0547 18.4845 17.3327 18.9481C16.6108 19.4117 15.6599 19.6705 14.6713 19.6722V19.6722Z" fill="#333333"/>
<path d="M17.6836 6.52295C19.8077 6.52295 22.236 6.93826 22.2353 9.5574C22.2347 11.5381 23.2467 16.6378 17.6836 16.6378" stroke="#333333" stroke-width="2"/>
</svg>
