<svg width="24" height="24" viewBox="0 0 24 24" fill="none" xmlns="http://www.w3.org/2000/svg">
<path d="M5.6 1.91992H18.4002C18.7215 1.91992 18.982 2.18041 18.982 2.50172V11.2291C18.982 11.5504 18.7215 11.8109 18.4002 11.8109H5.6C5.27871 11.8109 5.01821 11.5504 5.01821 11.2291V2.50172C5.01821 2.18042 5.2787 1.91992 5.6 1.91992ZM6.18193 3.08351V10.6473H17.8182V3.08351H6.18193ZM21.0184 14.1434V19.9562H21.3093C21.6306 19.9562 21.8911 20.2166 21.8911 20.538C21.8911 20.8593 21.6306 21.1198 21.3093 21.1198H19.5638C19.2425 21.1198 18.982 20.8593 18.982 20.538C18.982 20.2166 19.2425 19.9562 19.5638 19.9562H19.8547V15.2186C18.7194 15.8551 17.4556 16.1744 16.073 16.1744C14.7452 16.1744 13.5775 15.8795 12.582 15.2893V19.9563H12.8729C13.1943 19.9563 13.4548 20.2167 13.4548 20.5381C13.4548 20.8594 13.1943 21.1199 12.8729 21.1199H11.1275C10.8061 21.1199 10.5456 20.8594 10.5456 20.5381C10.5456 20.2167 10.8061 19.9563 11.1275 19.9563H11.4184V15.2187C10.283 15.8552 9.01923 16.1746 7.63673 16.1746C6.30895 16.1746 5.14138 15.8796 4.14576 15.2894V19.9564H4.43665C4.75795 19.9564 5.01845 20.2168 5.01845 20.5382C5.01845 20.8595 4.75796 21.12 4.43665 21.12H2.69117C2.36987 21.12 2.10938 20.8595 2.10938 20.5382C2.10938 20.2168 2.36987 19.9564 2.69117 19.9564H2.98206V14.1402V14.1358V13.5564C2.98206 13.2351 3.24255 12.9746 3.56386 12.9746C3.88528 12.9746 4.14579 13.2351 4.14579 13.5564V13.8722C5.07082 14.631 6.22638 15.0109 7.63676 15.0109C9.05961 15.0109 10.3148 14.6233 11.4185 13.8445V13.5564C11.4185 13.2351 11.679 12.9746 12.0003 12.9746C12.3216 12.9746 12.5821 13.2351 12.5821 13.5564V13.8722C13.5071 14.631 14.6628 15.0108 16.073 15.0108C17.4959 15.0108 18.751 14.6232 19.8547 13.8444V13.5564C19.8547 13.2351 20.1152 12.9746 20.4367 12.9746C20.758 12.9746 21.0185 13.2351 21.0185 13.5564V14.132L21.0184 14.1434ZM7.63668 3.95642H16.3641C16.6854 3.95642 16.9459 4.21692 16.9459 4.53822V9.19285C16.9459 9.51414 16.6854 9.77464 16.3641 9.77464H7.63668C7.31538 9.77464 7.05488 9.51415 7.05488 9.19285V4.53822C7.05488 4.21692 7.31537 3.95642 7.63668 3.95642ZM8.21847 5.12001V8.61099H15.7822V5.12001H8.21847Z" fill="#333333"/>
<rect x="7.67993" y="4.7998" width="8.64" height="3.84" fill="#212121"/>
</svg>
