<svg width="24" height="24" viewBox="0 0 24 24" fill="none" xmlns="http://www.w3.org/2000/svg">
<path fill-rule="evenodd" clip-rule="evenodd" d="M0.359863 14.6099L14.6098 0.359902L17.4738 3.2239C17.4738 3.22391 17.4738 3.22393 17.4738 3.22394C16.6306 4.06716 16.6306 5.43429 17.4738 6.27751C18.317 7.12072 19.6841 7.12072 20.5273 6.27751C20.5274 6.27749 20.5274 6.27748 20.5274 6.27746L22.7527 8.50274L8.5027 22.7527L6.27729 20.5273C7.12036 19.6841 7.12031 18.317 6.27714 17.4739C5.43397 16.6307 4.06696 16.6307 3.22373 17.4737L0.359863 14.6099Z" fill="#212121"/>
<rect x="4.75049" y="12.8354" width="1.35713" height="2.03569" transform="rotate(-45 4.75049 12.8354)" fill="white"/>
<rect x="7.14966" y="15.2344" width="1.35713" height="2.03569" transform="rotate(-45 7.14966 15.2344)" fill="white"/>
<rect x="9.54883" y="17.6333" width="1.35713" height="2.03569" transform="rotate(-45 9.54883 17.6333)" fill="white"/>
</svg>
