<svg width="24" height="24" viewBox="0 0 24 24" fill="none" xmlns="http://www.w3.org/2000/svg">
<g clip-path="url(#clip0_96_1133)">
<path d="M23.25 11.25H0.75C0.551088 11.25 0.360322 11.329 0.21967 11.4697C0.0790176 11.6103 0 11.8011 0 12C0.011019 14.4267 0.753535 16.7936 2.13059 18.7918C3.50764 20.7899 5.45522 22.3264 7.719 23.2005C7.80472 23.2333 7.89572 23.2501 7.9875 23.25H16.0125C16.1043 23.2501 16.1953 23.2333 16.281 23.2005C18.5448 22.3264 20.4924 20.7899 21.8694 18.7918C23.2465 16.7936 23.989 14.4267 24 12C24 11.8011 23.921 11.6103 23.7803 11.4697C23.6397 11.329 23.4489 11.25 23.25 11.25Z" fill="#333333"/>
<path d="M2.25 9.75H21.75C21.9489 9.75 22.1397 9.67098 22.2803 9.53033C22.421 9.38968 22.5 9.19891 22.5 9C22.4984 8.43601 22.3689 7.87974 22.1211 7.37308C21.8734 6.86642 21.5139 6.42258 21.0698 6.075L23.901 1.125L22.599 0.375L19.731 5.4C19.0543 5.19584 18.3312 5.20448 17.6595 5.42475L18.7208 1.7085L17.2793 1.2975L16.0665 5.538C15.5664 5.06566 14.946 4.73998 14.2733 4.59658C13.6005 4.45319 12.9012 4.49762 12.252 4.725C11.8499 4.35713 11.3717 4.08223 10.8515 3.9198C10.3312 3.75737 9.7816 3.71139 9.24159 3.7851C8.70158 3.85882 8.1844 4.05044 7.72672 4.34637C7.26904 4.64231 6.88207 5.0353 6.59325 5.4975C6.02518 5.27956 5.41261 5.20311 4.8084 5.27476C4.20419 5.34641 3.62649 5.564 3.12515 5.90876C2.62381 6.25352 2.21389 6.71509 1.93075 7.25365C1.64762 7.7922 1.49978 8.39156 1.5 9C1.5 9.19891 1.57902 9.38968 1.71967 9.53033C1.86032 9.67098 2.05109 9.75 2.25 9.75Z" fill="#333333"/>
<path d="M4.5 3.75C4.91421 3.75 5.25 3.41421 5.25 3C5.25 2.58579 4.91421 2.25 4.5 2.25C4.08579 2.25 3.75 2.58579 3.75 3C3.75 3.41421 4.08579 3.75 4.5 3.75Z" fill="#333333"/>
<path d="M12.75 2.25C13.1642 2.25 13.5 1.91421 13.5 1.5C13.5 1.08579 13.1642 0.75 12.75 0.75C12.3358 0.75 12 1.08579 12 1.5C12 1.91421 12.3358 2.25 12.75 2.25Z" fill="#333333"/>
</g>
<defs>
<clipPath id="clip0_96_1133">
<rect width="24" height="24" fill="white"/>
</clipPath>
</defs>
</svg>
