<svg width="24" height="24" viewBox="0 0 24 24" fill="none" xmlns="http://www.w3.org/2000/svg">
<g clip-path="url(#clip0_96_1171)">
<path d="M10.9971 10.4697L12.8669 14.5407C13.7925 16.5559 16.0248 17.5519 18.1013 16.9925L19.3759 19.7675L17.3404 20.7025L17.9637 22.0595L23.3917 19.5663L22.7684 18.2093L20.7329 19.1443L19.4583 16.3692C21.2357 15.1584 21.9346 12.8161 21.009 10.801L19.1391 6.72997L10.9971 10.4697ZM19.3403 10.7458L13.9123 13.2389L12.9774 11.2034L18.4054 8.71027L19.3403 10.7458Z" fill="#333333"/>
<path d="M12.7515 6.73975L10.8816 10.8108C9.956 12.8259 7.72378 13.8219 5.64725 13.2625L4.37261 16.0376L6.40812 16.9725L5.78483 18.3295L0.356807 15.8363L0.980099 14.4793L3.01561 15.4143L4.29024 12.6392C2.51288 11.4284 1.81396 9.08617 2.73955 7.07101L4.60943 2.99999L12.7515 6.73975ZM4.40821 7.0158L9.83623 9.50897L10.7712 7.47346L5.34314 4.98029L4.40821 7.0158Z" fill="#333333"/>
</g>
<defs>
<clipPath id="clip0_96_1171">
<rect width="24" height="24" fill="white"/>
</clipPath>
</defs>
</svg>
