<svg width="24" height="24" viewBox="0 0 24 24" fill="none" xmlns="http://www.w3.org/2000/svg">
<path d="M22.17 9.16992C22.17 5.29992 19.04 2.16992 15.17 2.16992C11.3 2.16992 8.17 5.29992 8.17 9.16992C8.16872 10.8227 8.75397 12.4223 9.82156 13.684C10.8892 14.9457 12.3698 15.7876 14 16.0599V19.9999H6V16.9999H7V12.9999C7 12.4499 6.55 11.9999 6 11.9999H3C2.45 11.9999 2 12.4499 2 12.9999V16.9999H3V21.9999H19V19.9999H16V16.1199C17.7006 15.9168 19.2677 15.0974 20.4048 13.8166C21.5418 12.5358 22.1698 10.8826 22.17 9.16992V9.16992ZM4.5 10.9999C5.33 10.9999 6 10.3299 6 9.49992C6 8.66992 5.33 7.99992 4.5 7.99992C3.67 7.99992 3 8.66992 3 9.49992C3 10.3299 3.67 10.9999 4.5 10.9999Z" fill="#333333"/>
</svg>
