<svg width="24" height="24" viewBox="0 0 24 24" fill="none" xmlns="http://www.w3.org/2000/svg">
<path d="M22.875 20.5762L20.9925 7.3935C20.9668 7.21485 20.8777 7.05143 20.7413 6.93323C20.6049 6.81503 20.4304 6.74998 20.25 6.75H16.5V4.5C16.5 3.30653 16.0259 2.16193 15.182 1.31802C14.338 0.474106 13.1934 0 12 0C10.8065 0 9.6619 0.474106 8.81799 1.31802C7.97408 2.16193 7.49997 3.30653 7.49997 4.5V6.75H3.74997C3.56949 6.74998 3.39506 6.81503 3.25867 6.93323C3.12229 7.05143 3.0331 7.21485 3.00747 7.3935L1.12497 20.577C1.10488 20.7171 1.09486 20.8585 1.09497 21C1.09497 21.7956 1.41104 22.5587 1.97365 23.1213C2.53626 23.6839 3.29932 24 4.09497 24H19.9057C20.0477 23.9998 20.1896 23.9898 20.3302 23.97C21.1171 23.8561 21.8268 23.435 22.3038 22.7989C22.7808 22.1628 22.9862 21.3635 22.875 20.5762V20.5762ZM8.99997 4.5C8.99997 3.70435 9.31604 2.94129 9.87865 2.37868C10.4413 1.81607 11.2043 1.5 12 1.5C12.7956 1.5 13.5587 1.81607 14.1213 2.37868C14.6839 2.94129 15 3.70435 15 4.5V6.75H8.99997V4.5Z" fill="#333333"/>
</svg>
