<svg width="25" height="25" viewBox="0 0 25 25" fill="none" xmlns="http://www.w3.org/2000/svg">
<path d="M19.7701 2.9902C17.4301 0.650202 13.1501 1.1202 10.2201 4.0502C8.62009 5.6502 7.70009 7.9202 7.68009 9.5102C7.66009 11.0902 7.94009 13.4002 6.33009 15.0102L2.09009 19.2502L3.51009 20.6702L7.75009 16.4302C9.36009 14.8202 11.6701 15.1002 13.2501 15.0802C14.8301 15.0602 17.1101 14.1402 18.7101 12.5402C21.6301 9.6102 22.1101 5.3302 19.7701 2.9902ZM10.5701 12.1802C9.04009 10.6502 9.52009 7.5702 11.6301 5.4602C13.7401 3.3502 16.8101 2.8702 18.3501 4.4002C19.8801 5.9302 19.4001 9.0102 17.2901 11.1202C15.1801 13.2302 12.1101 13.7102 10.5701 12.1802Z" fill="#333333"/>
<path d="M18.2501 17.5C18.7801 17.5 19.2901 17.71 19.6601 18.09C20.4401 18.87 20.4401 20.14 19.6601 20.92C19.2901 21.29 18.7801 21.5 18.2501 21.5C17.7201 21.5 17.2101 21.29 16.8401 20.91C16.0601 20.13 16.0601 18.86 16.8401 18.08C17.2101 17.71 17.7201 17.5 18.2501 17.5ZM18.2501 15.5C17.4581 15.4984 16.6835 15.7321 16.0245 16.1714C15.3655 16.6108 14.8518 17.2359 14.5486 17.9676C14.2455 18.6993 14.1665 19.5045 14.3216 20.2812C14.4768 21.0579 14.8591 21.771 15.4201 22.33C16.2001 23.11 17.2301 23.5 18.2501 23.5C19.0421 23.5016 19.8168 23.2679 20.4758 22.8286C21.1348 22.3893 21.6484 21.7641 21.9516 21.0324C22.2548 20.3007 22.3338 19.4955 22.1787 18.7188C22.0235 17.9421 21.6412 17.2291 21.0801 16.67C20.7084 16.2986 20.2672 16.0041 19.7816 15.8033C19.296 15.6026 18.7756 15.4995 18.2501 15.5Z" fill="#212121"/>
</svg>
