<svg width="25" height="25" viewBox="0 0 25 25" fill="none" xmlns="http://www.w3.org/2000/svg">
<g clip-path="url(#clip0_1049_7698)">
<path d="M11.5451 15.6548L15.2301 20.6914C15.5246 21.0952 15.6545 21.6003 15.5912 22.0958C15.528 22.5913 15.2769 23.0367 14.8929 23.3341V23.3341C14.5084 23.6308 14.0228 23.7552 13.5427 23.6799C13.0625 23.6047 12.627 23.336 12.3317 22.9327L6.72412 15.311" stroke="white" stroke-width="2" stroke-miterlimit="10" stroke-linecap="round" stroke-linejoin="round"/>
<path d="M20.1692 16.1712C22.1749 15.6337 22.8942 11.8142 21.7757 7.6401C20.6572 3.46595 18.1246 0.517807 16.1189 1.05523C14.1132 1.59265 13.394 5.41213 14.5125 9.58628C15.6309 13.7604 18.1635 16.7086 20.1692 16.1712Z" stroke="white" stroke-width="2" stroke-miterlimit="10" stroke-linecap="round" stroke-linejoin="round"/>
<path d="M16.6016 6.81738C17.1269 6.67661 17.689 6.75877 18.164 7.0458C18.6391 7.33282 18.9883 7.80119 19.1348 8.34787C19.2812 8.89455 19.213 9.47476 18.9451 9.96086C18.6772 10.447 18.2316 10.7991 17.7062 10.9399" stroke="white" stroke-width="2" stroke-miterlimit="10" stroke-linecap="round" stroke-linejoin="round"/>
<path d="M15.4402 1.39528L3.21139 9.66857C2.66714 9.97483 2.24583 10.4687 2.01899 11.0665C1.79215 11.6642 1.77375 12.3289 1.96692 12.9477C2.10903 13.5802 2.45731 14.1466 2.95263 14.5508C3.44794 14.9551 4.05976 15.1722 4.68422 15.1653L19.4113 16.2157" stroke="white" stroke-width="2" stroke-miterlimit="10" stroke-linecap="round" stroke-linejoin="round"/>
</g>
<defs>
<clipPath id="clip0_1049_7698">
<rect width="25" height="25" fill="white"/>
</clipPath>
</defs>
</svg>
