<svg width="335" height="75" viewBox="0 0 335 75" fill="none" xmlns="http://www.w3.org/2000/svg">
<g clip-path="url(#clip0_1124_7588)">
<path d="M57.1019 11.1935L60.6545 13.7506L57.6983 16.7176C56.9206 17.5 56.9525 18.5348 57.7648 19.0229C58.2381 19.246 58.7714 19.315 59.2896 19.2199C59.8079 19.1249 60.2849 18.8707 60.6534 18.4932L64.8763 14.2805C65.1506 14.0152 65.3378 13.6737 65.4128 13.3017C65.4783 13.0588 65.4688 12.8028 65.3855 12.5671C65.3022 12.3314 65.1491 12.1271 64.9462 11.9808L61.4317 9.45522L65.9769 5.9243C66.8705 5.22701 67.0393 4.1705 66.3573 3.56929C65.9339 3.28629 65.4279 3.14947 64.916 3.17959C64.404 3.20972 63.9141 3.40513 63.5204 3.73621L57.4355 8.45263C57.2245 8.60081 57.0452 8.78964 56.9086 9.00774C56.772 9.22584 56.6808 9.46871 56.6405 9.72175C56.5436 9.98524 56.5363 10.2722 56.6197 10.5383C56.7031 10.8044 56.8726 11.0347 57.1019 11.1935Z" fill="#3F8A8D"/>
<path d="M76.8602 20.584L81.3282 22.7565L84.0939 20.0581C84.4931 19.7079 84.9884 19.4856 85.5143 19.4208C86.0401 19.356 86.5715 19.4518 87.038 19.6954C87.241 19.7894 87.417 19.9321 87.5503 20.1108C87.6837 20.2895 87.7704 20.4987 87.8026 20.7198C87.8348 20.941 87.8116 21.1672 87.7351 21.3785C87.6585 21.5898 87.531 21.7795 87.3638 21.931L83.4313 25.7661C83.1332 26.0429 82.768 26.2374 82.3725 26.33C81.7482 26.5142 81.0805 26.4675 80.4931 26.1985L76.1124 24.0568L73.2278 28.0317C72.8762 28.4231 72.4128 28.6978 71.9011 28.8183C71.3894 28.9387 70.8545 28.8989 70.3699 28.7043C69.3647 28.2981 69.0186 27.3376 69.5937 26.5619L73.5118 21.2787C73.8499 20.8628 74.3256 20.5802 74.8521 20.4826C75.5128 20.2607 76.2309 20.2969 76.8602 20.584Z" fill="#3F8A8D"/>
<path d="M76.7384 39.7964L73.5588 42.776L69.9351 40.4557C69.521 40.1557 69.0161 40.0043 68.5015 40.0257C67.987 40.0471 67.4927 40.24 67.0981 40.5736C66.4886 41.2498 66.7687 42.2962 67.714 42.9068L72.8829 46.2082C73.2424 46.4374 73.6526 46.577 74.0794 46.6154C74.3689 46.6662 74.6666 46.6542 74.9524 46.5802C75.2382 46.5061 75.5052 46.3718 75.7353 46.1863L78.8489 43.2925L83.1512 46.8797C83.5417 47.2234 84.0338 47.4323 84.5555 47.4758C85.0772 47.5192 85.601 47.3949 86.0501 47.1211C86.7963 46.5485 86.717 45.5049 85.866 44.7892L80.1258 40.0006C79.6868 39.649 79.1473 39.4432 78.582 39.4117C78.2678 39.325 77.9365 39.3147 77.6158 39.3816C77.2951 39.4486 76.9942 39.5908 76.7384 39.7964Z" fill="#3F8A8D"/>
<path d="M21.0531 35.5815L8.05446 41.3679C6.54779 42.0527 5.32492 43.2402 4.59956 44.723C4.5013 44.7179 4.40269 44.7295 4.30798 44.7573L1.76994 45.9006C0.661654 46.3916 0.94514 49.5649 2.46235 52.9318C3.97955 56.2987 6.05975 58.677 7.15662 58.1691L9.69846 57.0315C9.77224 56.9834 9.83845 56.9246 9.89487 56.8571C11.4796 57.3274 13.1867 57.2208 14.7125 56.5563L16.0628 55.958L20.2545 65.468C20.722 66.5295 21.596 67.358 22.6841 67.7713C23.7723 68.1845 24.9856 68.1485 26.057 67.6714C27.1284 67.1942 27.9702 66.3148 28.3972 65.2268C28.8242 64.1387 28.8015 62.9311 28.334 61.8695L24.1423 52.3596L27.2762 50.9589L58.5791 51.7424L42.6188 12.4013L21.0531 35.5815Z" fill="#3F8A8D"/>
<path d="M55.7701 30.0235C51.5659 19.5102 45.3723 12.1172 41.9363 13.5109C38.5002 14.9045 39.1229 24.5571 43.3271 35.0704C47.5313 45.5837 53.7249 52.9767 57.161 51.583C60.597 50.1894 59.9743 40.5368 55.7701 30.0235Z" fill="white"/>
<path fill-rule="evenodd" clip-rule="evenodd" d="M56.3008 49.0304C56.3009 49.0308 56.2962 49.0312 56.2864 49.0306C56.2958 49.0298 56.3007 49.0301 56.3008 49.0304ZM56.1255 48.9955C56.0037 48.9575 55.8144 48.8797 55.5445 48.7217C54.7844 48.2767 53.7856 47.4076 52.6372 46.0369C50.3609 43.3198 47.8924 39.1084 45.8661 34.0411C43.8397 28.9738 42.721 24.215 42.4922 20.6674C42.3767 18.8778 42.4987 17.5541 42.7404 16.7027C42.8262 16.4005 42.9092 16.2122 42.9709 16.0999C43.0926 16.1378 43.282 16.2156 43.5518 16.3736C44.312 16.8187 45.3108 17.6877 46.4592 19.0584C48.7355 21.7756 51.2039 25.9869 53.2303 31.0542C55.2567 36.1215 56.3753 40.8803 56.6042 44.4279C56.7196 46.2176 56.5976 47.5412 56.356 48.3926C56.2702 48.6948 56.1872 48.8831 56.1255 48.9955ZM43.0732 15.9523C43.0733 15.9526 43.07 15.9563 43.0627 15.9623C43.0693 15.955 43.073 15.952 43.0732 15.9523ZM42.81 16.0648C42.8006 16.0656 42.7957 16.0653 42.7956 16.0649C42.7955 16.0646 42.8001 16.0642 42.81 16.0648ZM56.0337 49.133C56.027 49.1404 56.0234 49.1434 56.0232 49.143C56.023 49.1427 56.0264 49.139 56.0337 49.133ZM48.4261 49.5481C45.6956 46.2889 42.9651 41.5471 40.7873 36.1011C38.6095 30.655 37.3147 25.3309 37.0402 21.0755C36.9039 18.9637 37.0077 16.9558 37.4843 15.2768C37.9471 13.6464 38.927 11.8065 40.9292 10.9944C42.9315 10.1823 44.904 10.8247 46.3596 11.677C47.8586 12.5547 49.3152 13.9297 50.6702 15.5472C53.4008 18.8064 56.1312 23.5482 58.3091 28.9943C60.4869 34.4403 61.7817 39.7644 62.0562 44.0198C62.1924 46.1317 62.0886 48.1395 61.6121 49.8185C61.1493 51.4489 60.1693 53.2888 58.1671 54.1009C56.1649 54.913 54.1924 54.2706 52.7367 53.4183C51.2378 52.5406 49.7812 51.1656 48.4261 49.5481Z" fill="#3F8A8D"/>
<path d="M22.8293 41.2504C22.3286 40.4077 21.2163 40.1457 20.3448 40.6651C19.4734 41.1845 19.1728 42.2887 19.6735 43.1314C20.1742 43.9741 21.2865 44.2361 22.1579 43.7167C23.0294 43.1973 23.3299 42.0931 22.8293 41.2504Z" fill="white"/>
<path d="M39.0167 31.9408C38.5161 31.0982 37.4037 30.8361 36.5323 31.3555C35.6609 31.875 35.3603 32.9792 35.861 33.8219C36.3617 34.6645 37.474 34.9266 38.3454 34.4071C39.2169 33.8877 39.5174 32.7835 39.0167 31.9408Z" fill="white"/>
<path d="M26.8908 43.3695C26.9137 43.4031 26.9403 43.4423 26.967 43.4815C27.2924 44.1593 27.7567 44.7608 28.3304 45.2476C28.904 45.7343 29.5743 46.0959 30.2988 46.3092C31.0234 46.5225 31.7862 46.5828 32.5389 46.4864C33.2915 46.3901 34.0175 46.1391 34.6707 45.7493C35.3239 45.3596 35.89 44.8398 36.3331 44.2228C36.7761 43.6058 37.0864 42.9052 37.2442 42.1655C37.402 41.4259 37.4039 40.6633 37.2497 39.9262C37.0955 39.1892 36.7886 38.4939 36.3486 37.8844C36.3204 37.8491 36.2949 37.8116 36.2724 37.7724C34.4223 38.0383 32.6397 38.6668 31.0279 39.6215C29.4161 40.5762 28.0072 41.838 26.8831 43.3338L26.8908 43.3695Z" fill="white"/>
<path fill-rule="evenodd" clip-rule="evenodd" d="M26.3374 42.9295C27.5159 41.3613 28.993 40.0383 30.6829 39.0373C32.3728 38.0364 34.2419 37.3774 36.1816 37.0987L36.6384 37.033L36.8658 37.4296C36.8714 37.4393 36.8777 37.4486 36.8847 37.4574L36.8946 37.4698L36.904 37.4828C37.399 38.1684 37.7443 38.9507 37.9177 39.7798C38.0912 40.609 38.0891 41.4669 37.9116 42.299C37.734 43.1312 37.385 43.9193 36.8866 44.6134C36.3881 45.3075 35.7512 45.8924 35.0164 46.3308C34.2815 46.7692 33.4648 47.0516 32.6181 47.16C31.7713 47.2685 30.9131 47.2006 30.098 46.9606C29.2829 46.7207 28.5288 46.3139 27.8835 45.7663C27.2513 45.2298 26.7371 44.5695 26.3722 43.8259L26.25 43.6461L26.1494 43.1796L26.3374 42.9295ZM27.6925 43.3956C27.9682 43.9017 28.3353 44.3532 28.7761 44.7273C29.278 45.1532 29.8645 45.4696 30.4985 45.6562C31.1324 45.8428 31.7999 45.8956 32.4585 45.8113C33.1171 45.727 33.7523 45.5073 34.3239 45.1663C34.8954 44.8254 35.3908 44.3705 35.7785 43.8306C36.1661 43.2908 36.4376 42.6777 36.5757 42.0305C36.7138 41.3833 36.7154 40.716 36.5805 40.0711C36.4643 39.5158 36.2491 38.9875 35.9457 38.511C34.3344 38.7941 32.784 39.3675 31.3716 40.2041C29.9619 41.039 28.7154 42.1209 27.6925 43.3956Z" fill="white"/>
<path d="M118.818 9.43848C124.412 9.56301 129.786 11.6114 134.016 15.2309C134.149 15.3224 134.259 15.4418 134.338 15.5805C134.418 15.7191 134.466 15.8736 134.478 16.0327C134.49 16.1918 134.466 16.3516 134.408 16.5005C134.35 16.6494 134.26 16.7837 134.143 16.8937L129.229 22.1084C128.999 22.3096 128.706 22.4257 128.399 22.4371C128.092 22.4485 127.791 22.3544 127.547 22.1709C125.323 20.1622 122.389 19.0994 119.379 19.2122C116.118 19.301 113.021 20.6457 110.749 22.9593C108.477 25.273 107.21 28.3725 107.218 31.5965C107.226 34.8204 108.509 37.9135 110.793 40.2158C113.077 42.5181 116.18 43.8473 119.442 43.9198C121.332 43.9461 123.209 43.6121 124.971 42.9362V39.3218H121.022C120.87 39.3281 120.719 39.3041 120.577 39.2513C120.435 39.1985 120.305 39.118 120.195 39.0145C120.085 38.9111 119.998 38.7868 119.937 38.6491C119.877 38.5114 119.846 38.3632 119.845 38.2132V32.1164C119.839 31.9618 119.866 31.8078 119.923 31.6638C119.98 31.5198 120.067 31.3889 120.177 31.2792C120.287 31.1694 120.419 31.0832 120.564 31.0258C120.71 30.9684 120.865 30.941 121.022 30.9454H133.598C133.902 30.9576 134.19 31.0868 134.399 31.3055C134.609 31.5243 134.724 31.8152 134.719 32.1164L134.806 48.6896C134.767 49.0662 134.59 49.4158 134.309 49.6732C129.587 52.3 124.26 53.6794 118.841 53.6779C112.978 53.5691 107.392 51.1907 103.284 47.0543C99.1763 42.9179 96.875 37.3538 96.875 31.5582C96.875 25.7626 99.1763 20.1985 103.284 16.0621C107.392 11.9256 112.978 9.54734 118.841 9.43848H118.818Z" fill="#3F8A8D"/>
<path d="M140.454 29.649C140.454 29.3385 140.579 29.0406 140.801 28.821C141.023 28.6014 141.325 28.4781 141.639 28.4781H144.57C144.817 28.4685 145.062 28.5398 145.264 28.6808C145.467 28.8219 145.617 29.025 145.691 29.2587L146.813 31.9676C148.061 30.1799 150.368 27.9004 153.615 27.9004C157.043 27.9004 159.468 29.1338 158.599 30.5546L155.542 35.4805C155.432 35.7326 155.227 35.932 154.97 36.0357C154.712 36.1393 154.424 36.139 154.168 36.0348C153.692 35.8454 153.187 35.7397 152.675 35.7225C152.219 35.7223 151.769 35.8151 151.351 35.9948C150.934 36.1746 150.558 36.4376 150.248 36.7673C149.938 37.097 149.701 37.4864 149.55 37.9111C149.399 38.3358 149.339 38.7866 149.373 39.2354V51.9522C149.373 52.7329 148.993 53.1232 147.998 53.1232H141.679C141.367 53.1134 141.072 52.9869 140.852 52.7694C140.631 52.5519 140.503 52.2597 140.494 51.9522L140.454 29.649Z" fill="#3F8A8D"/>
<path d="M172.724 27.861C175.323 27.8347 177.87 28.573 180.043 29.9819C182.216 31.3908 183.915 33.4066 184.926 35.7729C185.936 38.1392 186.21 40.7489 185.715 43.2701C185.22 45.7912 183.977 48.1097 182.144 49.9307C180.312 51.7516 177.973 52.9927 175.424 53.4958C172.876 53.999 170.234 53.7416 167.834 52.7564C165.434 51.7712 163.385 50.1027 161.947 47.9632C160.509 45.8237 159.748 43.3099 159.761 40.7418C159.787 37.3458 161.16 34.0954 163.583 31.6874C166.006 29.2795 169.288 27.9059 172.724 27.861ZM172.724 45.816C173.383 45.8048 174.034 45.6652 174.639 45.4052C175.244 45.1453 175.791 44.7699 176.248 44.3008C176.706 43.8317 177.066 43.2779 177.307 42.6712C177.548 42.0645 177.666 41.4168 177.653 40.7652C177.68 40.1096 177.572 39.4555 177.336 38.842C177.101 38.2286 176.742 37.6685 176.282 37.1953C175.822 36.7222 175.27 36.3458 174.66 36.0886C174.049 35.8315 173.392 35.699 172.728 35.699C172.064 35.699 171.407 35.8315 170.796 36.0886C170.185 36.3458 169.633 36.7222 169.173 37.1953C168.713 37.6685 168.355 38.2286 168.119 38.842C167.884 39.4555 167.776 40.1096 167.803 40.7652C167.783 42.0759 168.291 43.3408 169.213 44.283C170.135 45.2251 171.398 45.7679 172.724 45.7926V45.816Z" fill="#3F8A8D"/>
<path d="M189.959 29.6495C189.959 29.3389 190.084 29.0411 190.306 28.8215C190.529 28.6019 190.83 28.4785 191.144 28.4785H197.811C198.126 28.4785 198.427 28.6019 198.649 28.8215C198.872 29.0411 198.996 29.3389 198.996 29.6495V41.047C198.996 43.5763 200.434 45.7933 202.986 45.7933C205.419 45.7933 206.73 43.5138 206.73 41.4139V29.6495C206.73 28.6659 207.417 28.4785 208.041 28.4785H214.361C214.675 28.4785 214.976 28.6019 215.199 28.8215C215.421 29.0411 215.546 29.3389 215.546 29.6495V51.9527C215.536 52.2601 215.408 52.5523 215.188 52.7699C214.968 52.9874 214.672 53.1139 214.361 53.1237H211.43C211.17 53.1069 210.921 53.0172 210.711 52.8651C210.501 52.7129 210.339 52.5047 210.245 52.2649L209.305 49.9854C207.686 51.5467 205.695 53.7404 200.892 53.7404C193.475 53.7404 189.92 47.823 189.92 40.805L189.959 29.6495Z" fill="#3F8A8D"/>
<path d="M231.606 70.438C231.596 70.7454 231.468 71.0376 231.248 71.2551C231.028 71.4727 230.732 71.5992 230.421 71.6089H223.501C223.19 71.5992 222.895 71.4727 222.674 71.2551C222.454 71.0376 222.326 70.7454 222.316 70.438V29.649C222.326 29.3415 222.454 29.0493 222.674 28.8318C222.895 28.6143 223.19 28.4878 223.501 28.478H226.44C227.064 28.478 227.498 29.0323 227.751 29.7115L228.494 31.7411C229.507 30.5193 230.783 29.5354 232.228 28.8603C233.674 28.1853 235.253 27.8361 236.851 27.8379C243.898 27.8379 249.198 33.6928 249.198 40.7811C249.198 49.4619 243.463 53.7164 236.788 53.7164C234.999 53.6925 233.235 53.2933 231.614 52.5455L231.606 70.438ZM235.595 45.7928C236.26 45.8086 236.921 45.6918 237.539 45.4494C238.157 45.207 238.719 44.8439 239.192 44.3818C239.664 43.9198 240.038 43.3683 240.29 42.7604C240.542 42.1524 240.668 41.5005 240.659 40.8435C240.674 40.1805 240.554 39.5212 240.306 38.905C240.058 38.2887 239.687 37.728 239.215 37.2561C238.744 36.7842 238.181 36.4108 237.56 36.1581C236.94 35.9054 236.274 35.7785 235.603 35.7849C234.935 35.7793 234.273 35.9072 233.657 36.161C233.04 36.4149 232.482 36.7893 232.015 37.2619C231.549 37.7344 231.184 38.2954 230.943 38.9109C230.701 39.5264 230.588 40.1838 230.611 40.8435C230.594 41.4961 230.711 42.1454 230.955 42.7521C231.199 43.3587 231.565 43.9101 232.031 44.3728C232.497 44.8355 233.053 45.2 233.666 45.4441C234.278 45.6881 234.935 45.8068 235.595 45.7928Z" fill="#3F8A8D"/>
<path d="M253.74 16.1515C253.735 15.5084 253.858 14.8707 254.103 14.2748C254.348 13.6789 254.709 13.1366 255.166 12.679C255.624 12.2214 256.168 11.8574 256.767 11.608C257.367 11.3586 258.011 11.2286 258.662 11.2256C259.984 11.2276 261.251 11.747 262.187 12.6702C263.122 13.5933 263.65 14.845 263.654 16.1515C263.651 16.7956 263.519 17.4328 263.267 18.0265C263.014 18.6202 262.645 19.1587 262.181 19.6113C261.717 20.0638 261.168 20.4214 260.564 20.6636C259.96 20.9059 259.314 21.0279 258.662 21.0227C258.014 21.0259 257.372 20.9019 256.773 20.6581C256.174 20.4143 255.63 20.0555 255.172 19.6024C254.714 19.1494 254.352 18.6111 254.106 18.0187C253.861 17.4264 253.736 16.7917 253.74 16.1515ZM254.088 29.6489C254.088 29.3384 254.213 29.0405 254.435 28.8209C254.657 28.6013 254.959 28.478 255.273 28.478H262.13C262.444 28.478 262.745 28.6013 262.967 28.8209C263.19 29.0405 263.315 29.3384 263.315 29.6489V51.9521C263.305 52.2596 263.177 52.5518 262.957 52.7693C262.736 52.9868 262.441 53.1133 262.13 53.1231H255.273C254.962 53.1133 254.666 52.9868 254.446 52.7693C254.226 52.5518 254.098 52.2596 254.088 51.9521V29.6489Z" fill="#3F8A8D"/>
<path d="M271.388 36.3006H270.076C269.763 36.3006 269.463 36.1783 269.241 35.9604C269.019 35.7425 268.893 35.4466 268.891 35.1374V29.6729C268.886 29.5176 268.913 29.3629 268.97 29.2184C269.028 29.0739 269.115 28.9426 269.226 28.8327C269.337 28.7229 269.47 28.6368 269.616 28.5799C269.763 28.523 269.919 28.4964 270.076 28.5019H271.388V22.811C271.388 14.2238 276.807 9.37598 284.027 9.37598C287.265 9.37598 290.567 10.7343 291.634 11.7179C291.822 11.8982 291.948 12.1331 291.992 12.3887C292.036 12.6442 291.996 12.907 291.879 13.1387L289.264 18.252C289.117 18.4827 288.89 18.6531 288.626 18.732C288.362 18.8109 288.078 18.7929 287.826 18.6813C286.843 18.1003 285.732 17.7628 284.587 17.6977C281.965 17.6977 280.906 19.7898 280.906 22.811V28.4785H286.641C286.798 28.473 286.955 28.4996 287.101 28.5565C287.247 28.6134 287.38 28.6995 287.491 28.8093C287.603 28.9192 287.69 29.0504 287.747 29.195C287.805 29.3395 287.832 29.4942 287.826 29.6495V35.114C287.824 35.4232 287.698 35.7191 287.476 35.937C287.254 36.1549 286.954 36.2772 286.641 36.2772H280.946V51.9526C280.936 52.2601 280.808 52.5523 280.588 52.7698C280.368 52.9873 280.072 53.1138 279.761 53.1236H272.572C272.261 53.1157 271.964 52.9898 271.743 52.7719C271.523 52.554 271.396 52.2607 271.388 51.9526V36.3006Z" fill="#3F8A8D"/>
<path d="M289.28 30.0789C289.185 29.9067 289.139 29.7123 289.147 29.5163C289.155 29.3203 289.217 29.1302 289.325 28.966C289.434 28.8018 289.586 28.6698 289.764 28.584C289.943 28.4982 290.141 28.4617 290.339 28.4786H297.448C297.672 28.4817 297.889 28.5472 298.077 28.6673C298.264 28.7875 298.413 28.9575 298.507 29.1578L303.302 40.6177H303.428L308.357 29.1343C308.444 28.9286 308.591 28.7536 308.78 28.6323C308.969 28.5111 309.191 28.4493 309.416 28.4552H316.494C316.693 28.4326 316.895 28.4653 317.077 28.5496C317.259 28.6339 317.413 28.7665 317.523 28.9326C317.633 29.0986 317.694 29.2916 317.699 29.4899C317.704 29.6882 317.653 29.884 317.552 30.0555L298.444 70.8679C298.36 71.0834 298.216 71.271 298.028 71.4091C297.841 71.5472 297.618 71.6302 297.385 71.6485H290.426C290.221 71.6662 290.015 71.6279 289.831 71.5378C289.647 71.4477 289.491 71.3093 289.381 71.1376C289.271 70.966 289.211 70.7678 289.207 70.5647C289.203 70.3615 289.256 70.1613 289.359 69.9858L298.657 50.6334L289.28 30.0789Z" fill="#3F8A8D"/>
<path d="M318.191 51.5911V46.9072H319.131L320.245 50.2015C320.348 50.5138 320.427 50.7402 320.474 50.8963C320.522 50.7246 320.609 50.4748 320.719 50.1157L321.849 46.876H322.694V51.5599H322.086V47.6566L320.719 51.5599H320.158L318.792 47.5864V51.5599L318.191 51.5911Z" fill="#3F8A8D"/>
<path d="M314.08 51.5365V47.4224H312.5V46.876H316.236V47.4224H314.657V51.5365H314.08Z" fill="#3F8A8D"/>
</g>
<defs>
<clipPath id="clip0_1124_7588">
<rect width="334.375" height="75" fill="white"/>
</clipPath>
</defs>
</svg>
