<svg width="107" height="24" viewBox="0 0 107 24" fill="none" xmlns="http://www.w3.org/2000/svg">
<g clip-path="url(#clip0_1049_8114)">
<path d="M18.2727 3.58191L19.4095 4.40018L18.4636 5.34962C18.2147 5.59998 18.2249 5.93111 18.4848 6.0873C18.6363 6.15871 18.807 6.18077 18.9728 6.15036C19.1386 6.11995 19.2913 6.0386 19.4092 5.91779L20.7605 4.56972C20.8483 4.48484 20.9082 4.37555 20.9322 4.25651C20.9531 4.17881 20.9501 4.09688 20.9235 4.02145C20.8968 3.94603 20.8478 3.88063 20.7829 3.83383L19.6582 3.02565L21.1127 1.89575C21.3987 1.67262 21.4527 1.33454 21.2344 1.14215C21.099 1.05159 20.937 1.00781 20.7732 1.01745C20.6094 1.02709 20.4526 1.08962 20.3266 1.19556L18.3795 2.70482C18.3119 2.75224 18.2546 2.81266 18.2109 2.88245C18.1671 2.95225 18.1379 3.02996 18.125 3.11094C18.094 3.19525 18.0917 3.28709 18.1184 3.37223C18.1451 3.45737 18.1993 3.53107 18.2727 3.58191V3.58191Z" fill="#3F8A8D"/>
<path d="M24.5952 6.58701L26.025 7.28221L26.91 6.41872C27.0377 6.30665 27.1962 6.23552 27.3645 6.21479C27.5328 6.19406 27.7028 6.22471 27.8521 6.30266C27.9171 6.33274 27.9734 6.37839 28.0161 6.43558C28.0587 6.49276 28.0865 6.55971 28.0968 6.63047C28.1071 6.70124 28.0997 6.77363 28.0752 6.84124C28.0507 6.90885 28.0099 6.96958 27.9564 7.01803L26.698 8.2453C26.6026 8.33385 26.4857 8.39609 26.3591 8.42574C26.1594 8.48466 25.9457 8.46971 25.7577 8.38366L24.3559 7.69832L23.4328 8.97026C23.3203 9.09551 23.172 9.18344 23.0083 9.22197C22.8445 9.26051 22.6734 9.24777 22.5183 9.18549C22.1966 9.05553 22.0859 8.74817 22.2699 8.49994L23.5237 6.80931C23.6319 6.67622 23.7841 6.5858 23.9526 6.55457C24.164 6.48354 24.3938 6.49514 24.5952 6.58701Z" fill="#3F8A8D"/>
<path d="M24.5561 12.735L23.5387 13.6885L22.3791 12.946C22.2466 12.85 22.085 12.8015 21.9203 12.8084C21.7557 12.8152 21.5975 12.877 21.4712 12.9837C21.2762 13.2001 21.3658 13.5349 21.6683 13.7303L23.3224 14.7868C23.4374 14.8601 23.5687 14.9048 23.7053 14.9171C23.7979 14.9333 23.8932 14.9295 23.9846 14.9058C24.0761 14.8821 24.1615 14.8391 24.2352 14.7797L25.2315 13.8537L26.6082 15.0017C26.7332 15.1116 26.8907 15.1785 27.0576 15.1924C27.2245 15.2063 27.3922 15.1665 27.5359 15.0789C27.7747 14.8957 27.7493 14.5617 27.477 14.3327L25.6401 12.8003C25.4996 12.6878 25.327 12.622 25.1461 12.6119C25.0455 12.5842 24.9395 12.5809 24.8369 12.6023C24.7343 12.6237 24.638 12.6692 24.5561 12.735V12.735Z" fill="#3F8A8D"/>
<path d="M6.73663 11.3861L2.57705 13.2378C2.09492 13.4569 1.7036 13.8369 1.47149 14.3114C1.44004 14.3098 1.40849 14.3135 1.37818 14.3224L0.566011 14.6882C0.211358 14.8454 0.302074 15.8608 0.78758 16.9382C1.27309 18.0156 1.93875 18.7767 2.28975 18.6142L3.10314 18.2501C3.12675 18.2348 3.14793 18.2159 3.16599 18.1943C3.6731 18.3448 4.21938 18.3107 4.70762 18.0981L5.13974 17.9066L6.48106 20.9498C6.63067 21.2895 6.91034 21.5546 7.25855 21.6869C7.60677 21.8191 7.99501 21.8076 8.33786 21.6549C8.68071 21.5022 8.95009 21.2208 9.08673 20.8726C9.22338 20.5244 9.2161 20.138 9.0665 19.7983L7.72518 16.7551L8.728 16.3069L18.7449 16.5576L13.6376 3.96848L6.73663 11.3861Z" fill="#3F8A8D"/>
<path d="M17.8466 9.60764C16.5013 6.24337 14.5193 3.87763 13.4198 4.3236C12.3202 4.76957 12.5195 7.85837 13.8648 11.2226C15.2102 14.5869 17.1921 16.9526 18.2917 16.5067C19.3912 16.0607 19.1919 12.9719 17.8466 9.60764Z" fill="white"/>
<path fill-rule="evenodd" clip-rule="evenodd" d="M18.0163 15.6897C18.0164 15.6898 18.0148 15.6899 18.0117 15.6897C18.0147 15.6895 18.0163 15.6896 18.0163 15.6897ZM17.9602 15.6785C17.9213 15.6663 17.8607 15.6414 17.7743 15.5909C17.5311 15.4485 17.2114 15.1704 16.844 14.7317C16.1155 13.8623 15.3256 12.5146 14.6772 10.8931C14.0288 9.27156 13.6708 7.74875 13.5976 6.61351C13.5606 6.04082 13.5997 5.61725 13.677 5.34481C13.7044 5.24809 13.731 5.18785 13.7507 5.1519C13.7897 5.16405 13.8503 5.18893 13.9366 5.23949C14.1799 5.38191 14.4995 5.66 14.867 6.09863C15.5954 6.96812 16.3853 8.31574 17.0338 9.93728C17.6822 11.5588 18.0402 13.0816 18.1134 14.2169C18.1503 14.7896 18.1113 15.2131 18.034 15.4856C18.0065 15.5823 17.9799 15.6425 17.9602 15.6785ZM13.7835 5.10468C13.7835 5.10478 13.7825 5.10595 13.7801 5.10786C13.7822 5.10553 13.7834 5.10457 13.7835 5.10468ZM13.6992 5.14066C13.6962 5.14091 13.6947 5.14082 13.6946 5.14071C13.6946 5.14059 13.6961 5.14047 13.6992 5.14066ZM17.9308 15.7225C17.9287 15.7249 17.9275 15.7258 17.9275 15.7257C17.9274 15.7256 17.9285 15.7244 17.9308 15.7225ZM15.4964 15.8553C14.6227 14.8124 13.7489 13.295 13.052 11.5523C12.3551 9.80955 11.9408 8.10583 11.8529 6.7441C11.8093 6.06831 11.8425 5.42579 11.995 4.88853C12.1431 4.36679 12.4567 3.77803 13.0974 3.51816C13.7381 3.25829 14.3693 3.46384 14.8351 3.73659C15.3148 4.01744 15.7809 4.45744 16.2145 4.97504C17.0883 6.01799 17.9621 7.53538 18.659 9.2781C19.3559 11.0208 19.7702 12.7246 19.858 14.0863C19.9016 14.7621 19.8684 15.4046 19.7159 15.9419C19.5678 16.4636 19.2542 17.0524 18.6135 17.3122C17.9728 17.5721 17.3416 17.3665 16.8758 17.0938C16.3962 16.8129 15.93 16.3729 15.4964 15.8553Z" fill="#3F8A8D"/>
<path d="M7.30519 13.2002C7.14497 12.9305 6.78903 12.8467 6.51017 13.0129C6.23131 13.1791 6.13514 13.5325 6.29535 13.8021C6.45557 14.0718 6.81151 14.1556 7.09037 13.9894C7.36922 13.8232 7.4654 13.4698 7.30519 13.2002Z" fill="white"/>
<path d="M12.4854 10.2212C12.3251 9.95156 11.9692 9.86771 11.6903 10.0339C11.4115 10.2001 11.3153 10.5535 11.4755 10.8231C11.6357 11.0928 11.9917 11.1767 12.2705 11.0104C12.5494 10.8442 12.6456 10.4909 12.4854 10.2212Z" fill="white"/>
<path d="M8.60489 13.8785C8.6122 13.8892 8.62073 13.9018 8.62926 13.9143C8.73341 14.1312 8.88198 14.3237 9.06554 14.4794C9.24909 14.6352 9.46361 14.7509 9.69545 14.8192C9.9273 14.8874 10.1714 14.9067 10.4123 14.8759C10.6531 14.845 10.8854 14.7647 11.0945 14.64C11.3035 14.5153 11.4846 14.349 11.6264 14.1515C11.7682 13.9541 11.8675 13.7299 11.918 13.4932C11.9685 13.2565 11.9691 13.0125 11.9197 12.7766C11.8704 12.5408 11.7722 12.3183 11.6314 12.1232C11.6223 12.1119 11.6142 12.0999 11.607 12.0874C11.015 12.1725 10.4445 12.3736 9.92874 12.6791C9.41296 12.9846 8.96213 13.3884 8.60243 13.867L8.60489 13.8785Z" fill="white"/>
<path fill-rule="evenodd" clip-rule="evenodd" d="M8.428 13.7376C8.80514 13.2357 9.27781 12.8124 9.81857 12.4921C10.3593 12.1718 10.9574 11.9609 11.5782 11.8717L11.7243 11.8507L11.7971 11.9776C11.7989 11.9807 11.8009 11.9837 11.8031 11.9865L11.8063 11.9905L11.8093 11.9946C11.9677 12.214 12.0782 12.4644 12.1337 12.7297C12.1892 12.995 12.1886 13.2695 12.1317 13.5358C12.0749 13.8021 11.9632 14.0543 11.8037 14.2764C11.6442 14.4986 11.4404 14.6857 11.2053 14.826C10.9701 14.9663 10.7088 15.0567 10.4378 15.0914C10.1669 15.126 9.89224 15.1043 9.63141 15.0275C9.37057 14.9508 9.12924 14.8206 8.92275 14.6454C8.72044 14.4737 8.55591 14.2624 8.43913 14.0244L8.40005 13.9669L8.36785 13.8176L8.428 13.7376ZM8.86163 13.8867C8.94987 14.0487 9.06732 14.1932 9.20838 14.3129C9.36899 14.4492 9.55669 14.5504 9.75956 14.6101C9.96242 14.6698 10.176 14.6867 10.3868 14.6598C10.5975 14.6328 10.8008 14.5625 10.9837 14.4534C11.1666 14.3443 11.3251 14.1987 11.4491 14.0259C11.5732 13.8532 11.6601 13.657 11.7043 13.4499C11.7484 13.2428 11.749 13.0293 11.7058 12.8229C11.6686 12.6452 11.5997 12.4762 11.5027 12.3237C10.987 12.4142 10.4909 12.5977 10.039 12.8654C9.58786 13.1326 9.18897 13.4788 8.86163 13.8867Z" fill="white"/>
<path d="M38.0217 3.02042C39.8117 3.06027 41.5316 3.71576 42.8852 4.87399C42.9275 4.90327 42.9628 4.94148 42.9883 4.98585C43.0139 5.03023 43.0291 5.07965 43.033 5.13057C43.0369 5.18148 43.0293 5.23261 43.0107 5.28025C42.9921 5.3279 42.9631 5.37088 42.9257 5.40608L41.3534 7.0748C41.2798 7.13917 41.1859 7.17634 41.0878 7.17998C40.9896 7.18363 40.8932 7.15352 40.8149 7.09478C40.1034 6.45202 39.1645 6.11191 38.2012 6.14801C37.1576 6.17642 36.1666 6.60671 35.4396 7.34709C34.7126 8.08747 34.3072 9.07931 34.3098 10.111C34.3124 11.1426 34.723 12.1324 35.4537 12.8692C36.1845 13.6059 37.1777 14.0312 38.2214 14.0544C38.8262 14.0628 39.427 13.956 39.9909 13.7397V12.5831H38.727C38.6784 12.5851 38.63 12.5774 38.5845 12.5605C38.5391 12.5436 38.4976 12.5179 38.4624 12.4848C38.4272 12.4516 38.3992 12.4119 38.3799 12.3678C38.3607 12.3238 38.3506 12.2763 38.3503 12.2283V10.2773C38.3486 10.2279 38.3571 10.1786 38.3754 10.1325C38.3936 10.0864 38.4213 10.0445 38.4566 10.0094C38.4919 9.97432 38.5341 9.94673 38.5806 9.92836C38.6271 9.90999 38.6769 9.90123 38.727 9.90263H42.7512C42.8487 9.90652 42.9408 9.94788 43.0078 10.0179C43.0749 10.0879 43.1116 10.181 43.1102 10.2773L43.138 15.5808C43.1253 15.7013 43.0687 15.8132 42.9787 15.8955C41.4679 16.7361 39.7632 17.1775 38.0293 17.177C36.1529 17.1422 34.3654 16.3811 33.0509 15.0575C31.7364 13.7338 31 11.9533 31 10.0987C31 8.24414 31.7364 6.46361 33.0509 5.13996C34.3654 3.81631 36.1529 3.05525 38.0293 3.02042H38.0217Z" fill="#3F8A8D"/>
<path d="M44.9453 9.4877C44.9453 9.38832 44.9853 9.29301 45.0564 9.22274C45.1275 9.15247 45.2239 9.11299 45.3245 9.11299H46.2623C46.3416 9.10993 46.4197 9.13273 46.4846 9.17787C46.5494 9.22302 46.5975 9.288 46.6213 9.3628L46.9802 10.2296C47.3796 9.65757 48.1177 8.92813 49.1567 8.92813C50.2537 8.92813 51.0298 9.32283 50.7517 9.77748L49.7734 11.3538C49.7383 11.4344 49.6725 11.4982 49.5903 11.5314C49.508 11.5646 49.4158 11.5645 49.3336 11.5311C49.1815 11.4705 49.0198 11.4367 48.8559 11.4312C48.7101 11.4312 48.566 11.4608 48.4324 11.5184C48.2988 11.5759 48.1786 11.66 48.0795 11.7655C47.9803 11.8711 47.9042 11.9957 47.856 12.1316C47.8078 12.2675 47.7884 12.4117 47.7992 12.5553V16.6247C47.7992 16.8745 47.6779 16.9994 47.3594 16.9994H45.3371C45.2376 16.9963 45.1429 16.9558 45.0725 16.8862C45.0021 16.8166 44.9611 16.7231 44.958 16.6247L44.9453 9.4877Z" fill="#3F8A8D"/>
<path d="M55.2717 8.91565C56.1033 8.90724 56.9186 9.14348 57.6139 9.59433C58.3092 10.0452 58.853 10.6902 59.1763 11.4475C59.4995 12.2047 59.5875 13.0398 59.429 13.8465C59.2705 14.6533 58.8728 15.3952 58.2863 15.9779C57.6999 16.5606 56.9513 16.9578 56.1358 17.1188C55.3203 17.2798 54.4748 17.1975 53.7068 16.8822C52.9389 16.5669 52.2832 16.033 51.8231 15.3483C51.3631 14.6637 51.1196 13.8593 51.1236 13.0375C51.1321 11.9508 51.5711 10.9106 52.3466 10.1401C53.122 9.36957 54.1722 8.93 55.2717 8.91565V8.91565ZM55.2717 14.6612C55.4828 14.6577 55.691 14.613 55.8845 14.5298C56.0781 14.4466 56.2531 14.3265 56.3996 14.1764C56.5461 14.0263 56.6612 13.8491 56.7384 13.6549C56.8155 13.4608 56.8531 13.2535 56.8491 13.045C56.8576 12.8352 56.8231 12.6259 56.7478 12.4296C56.6724 12.2333 56.5577 12.054 56.4105 11.9026C56.2633 11.7512 56.0866 11.6308 55.8912 11.5485C55.6957 11.4662 55.4855 11.4238 55.273 11.4238C55.0605 11.4238 54.8503 11.4662 54.6548 11.5485C54.4594 11.6308 54.2827 11.7512 54.1355 11.9026C53.9883 12.054 53.8736 12.2333 53.7982 12.4296C53.7229 12.6259 53.6884 12.8352 53.6969 13.045C53.6908 13.4644 53.8531 13.8692 54.1482 14.1707C54.4434 14.4722 54.8473 14.6459 55.2717 14.6537V14.6612Z" fill="#3F8A8D"/>
<path d="M60.7871 9.4879C60.7871 9.38852 60.827 9.29321 60.8981 9.22294C60.9692 9.15267 61.0657 9.11319 61.1662 9.11319H63.2997C63.4003 9.11319 63.4967 9.15267 63.5678 9.22294C63.6389 9.29321 63.6789 9.38852 63.6789 9.4879V13.1351C63.6789 13.9445 64.1389 14.6539 64.9554 14.6539C65.734 14.6539 66.1536 13.9245 66.1536 13.2525V9.4879C66.1536 9.17314 66.3735 9.11319 66.5732 9.11319H68.5955C68.6961 9.11319 68.7925 9.15267 68.8636 9.22294C68.9347 9.29321 68.9747 9.38852 68.9747 9.4879V16.6249C68.9715 16.7233 68.9305 16.8168 68.8601 16.8864C68.7897 16.956 68.695 16.9965 68.5955 16.9996H67.6577C67.5745 16.9943 67.4947 16.9656 67.4275 16.9169C67.3604 16.8682 67.3087 16.8016 67.2785 16.7248L66.9777 15.9954C66.4595 16.495 65.8225 17.197 64.2856 17.197C61.9119 17.197 60.7744 15.3034 60.7744 13.0577L60.7871 9.4879Z" fill="#3F8A8D"/>
<path d="M74.1138 22.5401C74.1107 22.6385 74.0697 22.732 73.9993 22.8016C73.9288 22.8712 73.8342 22.9117 73.7347 22.9148H71.5203C71.4207 22.9117 71.3261 22.8712 71.2557 22.8016C71.1852 22.732 71.1443 22.6385 71.1411 22.5401V9.48767C71.1443 9.38928 71.1852 9.29578 71.2557 9.22617C71.3261 9.15656 71.4207 9.11608 71.5203 9.11296H72.4606C72.6603 9.11296 72.7994 9.29032 72.8803 9.50765L73.1179 10.1572C73.4422 9.76618 73.8504 9.4513 74.3129 9.23529C74.7754 9.01928 75.2807 8.90753 75.7923 8.90811C78.0471 8.90811 79.7433 10.7817 79.7433 13.0499C79.7433 15.8278 77.9081 17.1892 75.7721 17.1892C75.1996 17.1816 74.6352 17.0539 74.1164 16.8145L74.1138 22.5401ZM75.3904 14.6537C75.6031 14.6588 75.8146 14.6214 76.0123 14.5438C76.2101 14.4662 76.3899 14.35 76.5412 14.2022C76.6925 14.0543 76.812 13.8779 76.8927 13.6833C76.9733 13.4888 77.0135 13.2801 77.0107 13.0699C77.0155 12.8577 76.977 12.6468 76.8976 12.4496C76.8183 12.2524 76.6996 12.0729 76.5487 11.9219C76.3978 11.7709 76.2177 11.6515 76.0192 11.5706C75.8206 11.4897 75.6077 11.4491 75.3929 11.4512C75.1792 11.4494 74.9673 11.4903 74.7699 11.5715C74.5726 11.6527 74.394 11.7726 74.2447 11.9238C74.0955 12.075 73.9787 12.2545 73.9015 12.4515C73.8243 12.6484 73.7882 12.8588 73.7953 13.0699C73.7898 13.2788 73.8272 13.4865 73.9053 13.6806C73.9834 13.8748 74.1006 14.0512 74.2497 14.1993C74.3989 14.3474 74.5768 14.464 74.7729 14.5421C74.969 14.6202 75.179 14.6582 75.3904 14.6537V14.6537Z" fill="#3F8A8D"/>
<path d="M81.1968 5.16848C81.1952 4.9627 81.2346 4.75862 81.3129 4.56794C81.3912 4.37725 81.5068 4.20372 81.6531 4.05728C81.7994 3.91084 81.9736 3.79438 82.1655 3.71457C82.3574 3.63476 82.5634 3.59317 82.7717 3.59219C83.1947 3.59285 83.6003 3.75906 83.8997 4.05445C84.1991 4.34985 84.3679 4.7504 84.3692 5.16848C84.3683 5.3746 84.3261 5.57849 84.2452 5.76847C84.1643 5.95846 84.0463 6.1308 83.8979 6.27561C83.7495 6.42042 83.5736 6.53486 83.3803 6.61237C83.1871 6.68988 82.9802 6.72893 82.7717 6.72729C82.5644 6.72828 82.3589 6.68862 82.1672 6.61061C81.9755 6.53259 81.8014 6.41777 81.6549 6.27279C81.5085 6.12781 81.3926 5.95555 81.3139 5.766C81.2353 5.57644 81.1955 5.37335 81.1968 5.16848V5.16848ZM81.3081 9.48766C81.3081 9.38828 81.348 9.29297 81.4191 9.2227C81.4902 9.15243 81.5867 9.11295 81.6872 9.11295H83.8814C83.9819 9.11295 84.0784 9.15243 84.1495 9.2227C84.2206 9.29297 84.2605 9.38828 84.2605 9.48766V16.6247C84.2574 16.7231 84.2164 16.8166 84.146 16.8862C84.0755 16.9558 83.9809 16.9963 83.8814 16.9994H81.6872C81.5877 16.9963 81.493 16.9558 81.4226 16.8862C81.3522 16.8166 81.3112 16.7231 81.3081 16.6247V9.48766Z" fill="#3F8A8D"/>
<path d="M86.8439 11.6163H86.4243C86.3242 11.6163 86.2281 11.5771 86.1571 11.5074C86.0861 11.4377 86.0458 11.343 86.0451 11.2441V9.4954C86.0434 9.44573 86.052 9.39622 86.0704 9.34997C86.0888 9.30372 86.1167 9.26171 86.1523 9.22656C86.1878 9.19141 86.2304 9.16387 86.2772 9.14566C86.324 9.12745 86.3741 9.11895 86.4243 9.12069H86.8439V7.29959C86.8439 4.5517 88.578 3.0004 90.8884 3.0004C91.9248 3.0004 92.9815 3.43506 93.3227 3.74982C93.3831 3.8075 93.4232 3.88269 93.4373 3.96446C93.4514 4.04623 93.4387 4.13031 93.4011 4.20447L92.5644 5.84071C92.5173 5.91454 92.4448 5.96909 92.3603 5.99433C92.2758 6.01957 92.1849 6.01381 92.1043 5.97811C91.7896 5.79218 91.434 5.68419 91.0679 5.66335C90.2287 5.66335 89.89 6.33284 89.89 7.29959V9.1132H91.7252C91.7754 9.11145 91.8255 9.11995 91.8723 9.13817C91.9191 9.15638 91.9616 9.18392 91.9972 9.21907C92.0328 9.25422 92.0606 9.29622 92.0791 9.34248C92.0975 9.38873 92.1061 9.43823 92.1043 9.48791V11.2366C92.1037 11.3355 92.0634 11.4302 91.9924 11.4999C91.9213 11.5696 91.8253 11.6088 91.7252 11.6088H89.9026V16.6249C89.8994 16.7233 89.8585 16.8168 89.788 16.8864C89.7176 16.956 89.623 16.9965 89.5234 16.9996H87.2231C87.1234 16.9971 87.0284 16.9568 86.9578 16.8871C86.8873 16.8174 86.8465 16.7235 86.8439 16.6249V11.6163Z" fill="#3F8A8D"/>
<path d="M92.5697 9.62524C92.5393 9.57014 92.5246 9.50792 92.5271 9.44521C92.5297 9.38249 92.5494 9.32164 92.5841 9.2691C92.6189 9.21657 92.6674 9.17432 92.7245 9.14686C92.7816 9.1194 92.8452 9.10774 92.9084 9.11314H95.1835C95.2549 9.11414 95.3246 9.13508 95.3845 9.17353C95.4445 9.21198 95.4922 9.26639 95.5222 9.33047L97.0566 12.9977H97.097L98.6744 9.32298C98.702 9.25714 98.7491 9.20113 98.8096 9.16233C98.8701 9.12352 98.941 9.10376 99.0131 9.10564H101.278C101.342 9.09843 101.406 9.10889 101.465 9.13587C101.523 9.16285 101.572 9.20527 101.607 9.25841C101.642 9.31155 101.662 9.37329 101.664 9.43675C101.665 9.50021 101.649 9.56288 101.617 9.61775L95.502 22.6777C95.4751 22.7467 95.429 22.8067 95.3691 22.8509C95.3091 22.8951 95.2378 22.9217 95.1632 22.9275H92.9362C92.8707 22.9332 92.8048 22.9209 92.7459 22.8921C92.6869 22.8632 92.6371 22.819 92.6019 22.764C92.5666 22.7091 92.5474 22.6457 92.5462 22.5807C92.5449 22.5157 92.5618 22.4516 92.595 22.3954L95.5702 16.2027L92.5697 9.62524Z" fill="#3F8A8D"/>
<path d="M101.821 16.5092V15.0104H102.122L102.479 16.0646C102.511 16.1645 102.537 16.2369 102.552 16.2869C102.567 16.232 102.595 16.152 102.63 16.0371L102.992 15.0004H103.262V16.4992H103.067V15.2502L102.63 16.4992H102.451L102.013 15.2277V16.4992L101.821 16.5092Z" fill="#3F8A8D"/>
<path d="M100.506 16.4918V15.1753H100V15.0004H101.196V15.1753H100.69V16.4918H100.506Z" fill="#3F8A8D"/>
</g>
<defs>
<clipPath id="clip0_1049_8114">
<rect width="107" height="24" fill="white"/>
</clipPath>
</defs>
</svg>
