<svg width="67" height="52" viewBox="0 0 67 52" fill="none" xmlns="http://www.w3.org/2000/svg">
<path d="M32.0315 19.062L32.506 17.525C32.7577 16.7097 32.6752 15.8278 32.2767 15.0733C31.8782 14.3188 31.1963 13.7536 30.381 13.5019C29.5657 13.2501 28.6839 13.3326 27.9294 13.7311C27.1749 14.1296 26.6096 14.8115 26.3579 15.6268L21.839 30.2638C21.7613 30.5148 21.6234 30.743 21.4372 30.9284C21.251 31.1137 21.0222 31.2506 20.7709 31.3272C20.5195 31.4037 20.2533 31.4175 19.9953 31.3674C19.7374 31.3173 19.4957 31.2047 19.2914 31.0396L15.8653 28.2697C15.4311 27.9185 14.9034 27.7026 14.3475 27.6486C13.7917 27.5946 13.2322 27.7049 12.7385 27.966V27.966C12.0983 28.3038 11.6105 28.8724 11.3739 29.5565C11.1374 30.2407 11.1699 30.9891 11.4647 31.6502L14.6655 38.8304C15.506 40.7152 16.7396 42.3985 18.2839 43.7676C19.8281 45.1366 21.6471 46.1596 23.619 46.7681L26.564 47.6773C30.2327 48.81 34.2012 48.4389 37.5964 46.6456C40.9915 44.8523 43.5352 41.7837 44.6679 38.115L48.7014 25.0503C48.8902 24.4388 48.8283 23.7774 48.5294 23.2116C48.2306 22.6457 47.7191 22.2218 47.1077 22.033C46.4962 21.8442 45.8348 21.9061 45.2689 22.2049C44.7031 22.5038 44.2791 23.0153 44.0903 23.6267L43.8531 24.3952" stroke="#212121" stroke-width="2" stroke-miterlimit="10" stroke-linecap="square"/>
<path d="M29.1844 28.2842L32.9806 15.9881C33.2323 15.1728 33.7976 14.4909 34.5521 14.0924C35.3066 13.6939 36.1884 13.6114 37.0037 13.8631C37.819 14.1148 38.5009 14.6801 38.8994 15.4346C39.2979 16.1891 39.3804 17.0709 39.1287 17.8862L35.3325 30.1824" stroke="#212121" stroke-width="2" stroke-miterlimit="10" stroke-linecap="square"/>
<path d="M38.1794 20.9602L38.654 19.4232C38.9057 18.6079 39.4709 17.926 40.2254 17.5275C40.9799 17.1289 41.8618 17.0465 42.6771 17.2982V17.2982C43.4923 17.5499 44.1742 18.1152 44.5728 18.8696C44.9713 19.6241 45.0537 20.506 44.802 21.3213L41.4803 32.0804" stroke="#212121" stroke-width="2" stroke-miterlimit="10" stroke-linecap="square"/>
<path d="M14.7678 20.8209C13.852 18.6801 13.824 16.2633 14.6901 14.102C15.5563 11.9407 17.2455 10.212 19.3862 9.29613" stroke="#212121" stroke-width="2" stroke-miterlimit="10" stroke-linecap="square"/>
<path d="M9.32558 15.6498C9.2272 14.2182 9.07997 13.0039 9.69536 11.4683C10.3107 9.93261 10.851 8.83531 12.607 7.46132" stroke="#212121" stroke-width="2" stroke-miterlimit="10" stroke-linecap="square"/>
<path d="M56.649 20.1406C57.9111 22.0973 58.3443 24.4751 57.8532 26.7511C57.3621 29.0271 55.9869 31.0148 54.0303 32.277" stroke="#212121" stroke-width="2" stroke-miterlimit="10" stroke-linecap="square"/>
<path d="M62.882 24.3253C63.2192 25.7201 63.5682 26.8925 63.2192 28.5097C62.8703 30.1268 62.5219 31.2992 61.0213 32.9484" stroke="#212121" stroke-width="2" stroke-miterlimit="10" stroke-linecap="square"/>
</svg>
